<?xml version="1.0" standalone="no"?>
<!DOCTYPE svg PUBLIC "-//W3C//DTD SVG 20010904//EN"
 "http://www.w3.org/TR/2001/REC-SVG-20010904/DTD/svg10.dtd">
<svg version="1.0" xmlns="http://www.w3.org/2000/svg"
 width="1920.000000pt" height="1920.000000pt" viewBox="0 0 1920.000000 1920.000000"
 preserveAspectRatio="xMidYMid meet">

<g transform="translate(0.000000,1920.000000) scale(0.100000,-0.100000)"
fill="#000000" stroke="none">
<path d="M3235 13106 c-40 -17 -84 -63 -101 -103 -11 -26 -14 -171 -14 -775 0
-703 1 -745 19 -784 10 -23 32 -51 49 -62 54 -39 112 -44 489 -40 404 5 429 8
549 86 184 119 282 374 229 598 -13 57 -69 169 -102 206 -14 16 -13 21 11 53
155 202 137 509 -39 674 -79 73 -157 117 -253 142 -68 17 -111 19 -441 19
-281 -1 -373 -4 -396 -14z m782 -357 c63 -31 97 -92 91 -165 -7 -81 -55 -136
-134 -154 -21 -5 -141 -10 -266 -10 l-228 0 0 175 0 175 247 0 c230 0 250 -1
290 -21z m16 -669 c52 -35 77 -91 77 -172 0 -88 -29 -144 -90 -175 -42 -22
-55 -23 -292 -23 l-248 0 0 200 0 201 258 -3 c257 -3 259 -3 295 -28z"/>
<path d="M4770 13108 c-49 -14 -100 -55 -116 -94 -11 -27 -14 -129 -14 -539 0
-579 2 -600 77 -754 82 -172 233 -295 423 -347 101 -28 273 -24 372 8 111 37
204 92 279 167 112 113 173 239 189 394 12 113 12 965 1 1026 -31 157 -228
198 -325 67 -20 -27 -21 -42 -26 -559 -5 -517 -6 -533 -26 -578 -31 -66 -84
-121 -151 -155 -50 -25 -69 -29 -138 -29 -121 0 -208 47 -270 145 -42 68 -45
104 -45 621 0 475 -1 494 -20 535 -36 74 -130 116 -210 92z"/>
<path d="M7647 13106 c-50 -18 -85 -51 -108 -101 -36 -78 -13 -168 57 -221
l37 -29 193 -3 193 -3 3 -637 c3 -694 1 -665 60 -718 38 -35 69 -47 124 -47
72 0 135 37 163 96 21 43 21 54 21 675 l0 632 179 0 c191 0 219 5 265 48 87
82 71 229 -32 290 l-47 27 -535 2 c-436 2 -542 0 -573 -11z"/>
<path d="M9535 13110 c-256 -36 -459 -213 -546 -475 -23 -69 -24 -76 -27 -595
-2 -289 0 -540 3 -558 8 -45 57 -97 110 -118 83 -31 173 2 222 84 22 35 23 48
23 220 l0 182 315 0 315 0 0 -189 c0 -179 1 -190 23 -222 81 -120 245 -112
315 16 15 26 17 85 20 500 3 501 -3 625 -39 721 -76 204 -241 356 -446 413
-87 24 -206 33 -288 21z m235 -384 c73 -37 124 -88 151 -150 20 -44 24 -72 27
-208 l4 -158 -317 0 -317 0 4 158 c3 145 5 161 29 212 34 71 80 116 154 152
53 25 69 29 135 26 59 -2 87 -9 130 -32z"/>
<path d="M10688 13111 c-46 -15 -83 -42 -108 -79 l-25 -36 -3 -746 -2 -747 28
-54 c21 -42 38 -59 72 -76 44 -23 47 -23 516 -23 311 0 482 4 501 11 61 23
113 100 113 169 0 78 -62 159 -138 180 -22 6 -175 10 -379 10 l-343 0 0 631 0
631 -22 40 c-38 67 -141 111 -210 89z"/>
<path d="M12288 13110 c-124 -22 -229 -80 -315 -174 -261 -285 -147 -723 223
-858 48 -17 91 -23 229 -28 188 -7 215 -15 259 -73 49 -64 46 -143 -7 -204
-54 -61 -65 -63 -382 -63 -267 0 -288 -1 -325 -20 -103 -53 -129 -190 -53
-281 53 -62 61 -64 361 -67 327 -4 386 3 500 59 144 70 249 195 288 344 16 59
18 192 3 255 -27 118 -142 276 -246 337 -98 57 -137 66 -323 73 -191 7 -216
13 -263 70 -50 59 -48 146 6 207 54 61 65 63 380 63 277 0 285 1 327 23 119
63 120 237 2 318 -35 24 -37 24 -326 26 -160 1 -312 -2 -338 -7z"/>
<path d="M6705 13096 c-253 -58 -440 -239 -512 -496 -16 -59 -18 -113 -18
-601 l0 -535 25 -37 c55 -80 158 -103 243 -54 87 51 81 13 87 612 5 517 6 531
27 577 32 70 94 131 164 163 148 66 333 -3 409 -152 l25 -48 5 -530 c5 -478 7
-533 22 -562 24 -42 65 -70 126 -84 47 -11 54 -10 104 14 33 16 63 41 78 64
l25 37 0 550 c0 614 2 598 -72 737 -84 161 -241 286 -419 334 -83 23 -245 28
-319 11z"/>
</g>
</svg>
